<svg xmlns="http://www.w3.org/2000/svg" xmlns:xlink="http://www.w3.org/1999/xlink" width="28px" height="56px" viewBox="0 0 28 56"><g  stroke="none" stroke-width="1" fill="none" fill-rule="evenodd"><g fill="currentColor"><g><path d="M14,33.686 C13.427,33.686 12.963,34.141 12.963,34.705 L12.963,36.78 C12.963,37.343 13.427,37.799 14,37.799 C14.573,37.799 15.037,37.344 15.037,36.78 L15.037,34.705 C15.037,34.141 14.573,33.686 14,33.686 Z"></path><path d="M14,22.314 C14.573,22.314 15.037,21.859 15.037,21.295 L15.037,19.22 C15.037,18.657 14.573,18.202 14,18.202 C13.427,18.202 12.963,18.657 12.963,19.22 L12.963,21.296 C12.963,21.859 13.427,22.314 14,22.314 Z"></path><path d="M22.942,26.981 L20.828,26.981 C20.255,26.981 19.791,27.437 19.791,28 C19.791,28.563 20.255,29.019 20.828,29.019 L22.942,29.019 C23.515,29.019 23.979,28.563 23.979,28 C23.979,27.437 23.516,26.981 22.942,26.981 Z"></path><path d="M8.209,28 C8.209,27.437 7.745,26.981 7.172,26.981 L5.058,26.981 C4.485,26.981 4.021,27.437 4.021,28 C4.021,28.563 4.485,29.019 5.058,29.019 L7.172,29.019 C7.745,29.019 8.209,28.563 8.209,28 Z"></path><path d="M18.795,24.244 C19.063,24.244 19.331,24.142 19.533,23.941 L21.017,22.463 C21.418,22.062 21.414,21.418 21.006,21.023 C20.598,20.628 19.942,20.632 19.54,21.034 L18.056,22.512 C17.655,22.912 17.659,23.557 18.067,23.951 C18.27,24.147 18.532,24.244 18.795,24.244 Z"></path><path d="M8.467,32.059 L6.983,33.537 C6.582,33.938 6.586,34.582 6.994,34.977 C7.196,35.172 7.459,35.27 7.722,35.27 C7.99,35.27 8.258,35.168 8.46,34.966 L9.944,33.488 C10.345,33.088 10.341,32.443 9.933,32.049 C9.525,31.655 8.868,31.658 8.467,32.059 Z"></path><path d="M17.531,24.579 C15.611,22.669 12.465,22.648 10.516,24.532 C8.569,26.418 8.547,29.509 10.467,31.421 C11.436,32.385 12.717,32.868 13.999,32.868 C15.258,32.868 16.518,32.401 17.482,31.467 C18.425,30.555 18.95,29.334 18.959,28.034 C18.97,26.732 18.462,25.506 17.531,24.579 Z M16.027,30.018 C14.892,31.116 13.061,31.103 11.944,29.991 C10.827,28.878 10.84,27.08 11.972,25.982 C13.105,24.887 14.935,24.897 16.054,26.01 C16.596,26.548 16.891,27.262 16.886,28.02 C16.881,28.776 16.576,29.486 16.027,30.018 Z"  fill-rule="nonzero"></path><path d="M8.467,23.941 C8.669,24.142 8.938,24.244 9.205,24.244 C9.468,24.244 9.73,24.147 9.933,23.951 C10.341,23.556 10.345,22.912 9.944,22.512 L8.46,21.034 C8.059,20.633 7.402,20.629 6.994,21.023 C6.586,21.419 6.582,22.062 6.983,22.463 L8.467,23.941 Z"></path><path d="M19.533,32.059 C19.132,31.659 18.475,31.655 18.067,32.049 C17.659,32.443 17.655,33.088 18.056,33.488 L19.54,34.966 C19.742,35.168 20.011,35.27 20.278,35.27 C20.541,35.27 20.803,35.172 21.006,34.977 C21.414,34.581 21.418,33.938 21.017,33.537 L19.533,32.059 Z"></path><path d="M24.889,4.072 L21.26,4.072 L21.26,1.432 C21.26,0.643 20.605,0 19.801,0 L8.199,0 C7.394,0 6.74,0.643 6.74,1.432 L6.74,4.073 L3.111,4.073 C1.396,4.072 0,5.443 0,7.127 L0,52.945 C0,54.63 1.396,56 3.111,56 L24.888,56 C26.604,56 28,54.63 28,52.945 L28,7.127 C28,5.443 26.604,4.072 24.889,4.072 Z M8.814,2.036 L19.185,2.036 L19.185,4.072 L8.814,4.072 L8.814,2.036 Z M25.926,52.945 C25.926,53.507 25.461,53.964 24.889,53.964 L3.111,53.964 C2.539,53.964 2.074,53.507 2.074,52.945 L2.074,7.127 C2.074,6.565 2.539,6.109 3.111,6.109 L8.199,6.109 L19.801,6.109 L24.889,6.109 C25.461,6.109 25.926,6.565 25.926,7.127 L25.926,52.945 Z"  fill-rule="nonzero"></path></g></g></g></svg>
