<?xml version="1.0" encoding="UTF-8"?>
<svg width="504px" height="894px" viewBox="0 0 504 894" version="1.1" xmlns="http://www.w3.org/2000/svg" xmlns:xlink="http://www.w3.org/1999/xlink">
    <!-- Generator: Sketch 54.1 (76490) - https://sketchapp.com -->
    <title>Group</title>
    <desc>Created with Sketch.</desc>
    <g id="Page-1" stroke="none" stroke-width="1" fill="none" fill-rule="evenodd">
        <g id="Group" transform="translate(0.100325, -0.000000)" fill="#FFFFFF" fill-rule="nonzero">
            <path d="M503.192237,2.13162821e-14 L157.873621,810 C155.519125,815.522847 149.133276,820 143.610428,820 L6.61042832,820 C1.08758082,820 -1.48087526,815.522847 0.873621101,810 L346.192237,0 L350.540566,1.42108547e-14 L4.55319501,811.568673 C3.27441074,814.568266 4.09576885,816 6.61042832,816 L143.610428,816 C147.485204,816 152.451892,812.517829 154.194047,808.431327 L498.843907,0 L503.192237,1.42108547e-14 Z" id="Combined-Shape"></path>
            <path d="M330.052254,894 L325.703925,894 L444.036802,616.431327 C445.315586,613.431734 444.494228,612 441.979568,612 L304.979568,612 C301.104792,612 296.138104,615.482171 294.395949,619.568673 L177.400584,894 L173.052254,894 L290.716375,618 C293.070872,612.477153 299.456721,608 304.979568,608 L441.979568,608 C447.502416,608 450.070872,612.477153 447.716375,618 L330.052254,894 Z" id="Combined-Shape"></path>
        </g>
    </g>
</svg>