<svg xmlns="http://www.w3.org/2000/svg" xmlns:xlink="http://www.w3.org/1999/xlink" width="24px" height="24px" viewBox="0 0 24 24"><g  stroke="none" stroke-width="1" fill="none" fill-rule="evenodd"><g fill="currentColor"><g><path d="M7.833,23.873 L7,23.5 L7,13.203 L1.691,18.394 L0.992,17.68 L6.787,12.013 L1,6.375 L1.698,5.659 L7,10.823 L7,0.5 L7.833,0.127 L13.984,5.627 L14.001,6.357 L8.22,12.011 L14,17.642 L13.984,18.373 L7.833,23.873 Z M8,13.193 L8,22.381 L12.919,17.984 L8,13.193 Z M8,1.618 L8,10.827 L12.919,6.016 L8,1.618 Z" fill-rule="nonzero"></path><path d="M20.708,19.448 L20.001,18.741 L20.355,18.387 C23.876,14.865 23.876,9.134 20.355,5.612 L20.001,5.258 L20.708,4.551 L21.062,4.905 C24.974,8.817 24.974,15.182 21.062,19.094 L20.708,19.448 Z"></path><path d="M17.781,16.855 L17.074,16.148 L17.428,15.794 C18.441,14.781 19,13.434 19,12 C19,10.566 18.441,9.219 17.428,8.205 L17.074,7.851 L17.781,7.144 L18.135,7.498 C19.338,8.7 20,10.299 20,12 C20,13.701 19.338,15.3 18.135,16.502 L17.781,16.855 Z"></path><path d="M12.5,12.5 C12.43,12.5 12.37,12.49 12.31,12.46 C12.25,12.44 12.19,12.4 12.15,12.35 C12.05,12.26 12,12.13 12,12 C12,11.93 12.01,11.87 12.04,11.81 C12.06,11.75 12.1,11.69 12.15,11.65 C12.19,11.6 12.25,11.56 12.31,11.54 C12.43,11.49 12.57,11.49 12.69,11.54 C12.75,11.56 12.81,11.6 12.85,11.65 C12.95,11.74 13,11.87 13,12 C13,12.06 12.99,12.13 12.96,12.19 C12.94,12.25 12.9,12.31 12.85,12.35 C12.81,12.4 12.75,12.44 12.69,12.46 C12.63,12.49 12.56,12.5 12.5,12.5 Z"></path><path d="M15.5,12.5 C15.439,12.5 15.37,12.49 15.31,12.46 C15.25,12.44 15.19,12.4 15.15,12.35 C15.05,12.26 15,12.13 15,12 C15,11.93 15.01,11.87 15.04,11.81 C15.06,11.75 15.1,11.69 15.149,11.65 C15.189,11.6 15.25,11.56 15.309,11.54 C15.49,11.46 15.709,11.51 15.849,11.65 C15.899,11.69 15.939,11.75 15.959,11.81 C15.99,11.87 16,11.93 16,12 C16,12.13 15.95,12.26 15.85,12.35 C15.76,12.45 15.63,12.5 15.5,12.5 Z"></path></g></g></g></svg>
