<svg xmlns="http://www.w3.org/2000/svg" xmlns:xlink="http://www.w3.org/1999/xlink" width="242px" height="260px" viewBox="0 0 242 260"><g  transform="translate(5.000000, 5.000000)" fill="currentColor" fill-rule="nonzero"><path d="M115.59862,244.224753 L29.9,194.714195 L29.9,148.9 C29.9,146.138576 27.6614237,143.9 24.9,143.9 C22.1385763,143.9 19.9,146.138576 19.9,148.9 L19.9,197.6 C19.9,199.385821 20.8524583,201.036068 22.3987711,201.929417 L113.098771,254.329417 C114.64714,255.223955 116.555356,255.223499 118.103298,254.328221 L208.703298,201.928221 C210.248445,201.03456 211.2,199.384967 211.2,197.6 L211.2,148.9 C211.2,146.138576 208.961424,143.9 206.2,143.9 C203.438576,143.9 201.2,146.138576 201.2,148.9 L201.2,194.715787 L115.59862,244.224753 Z"></path><path d="M203.700284,97.2302912 C206.091838,98.610846 209.149736,97.7912694 210.530291,95.3997156 C211.910846,93.0081618 211.091269,89.9502636 208.699716,88.5697088 L118.099716,36.2697088 C116.553593,35.3771902 114.648901,35.3767354 113.102352,36.2685156 L22.4023525,88.5685156 C20.0101397,89.9479283 19.189103,93.0054348 20.5685156,95.3976475 C21.9479283,97.7898603 25.0054348,98.610897 27.3976475,97.2314844 L115.598622,46.3724882 L203.700284,97.2302912 Z"></path><path d="M110.6,148.185805 L110.6,250 C110.6,252.761424 112.838576,255 115.6,255 C118.361424,255 120.6,252.761424 120.6,250 L120.6,145.3 C120.6,143.514179 119.647542,141.863932 118.101229,140.970583 L27.4012289,88.5705827 C25.0101578,87.1891921 21.9519733,88.0076999 20.5705827,90.3987711 C19.1891921,92.7898422 20.0076999,95.8480267 22.3987711,97.2294173 L110.6,148.185805 Z"></path><path d="M118.103298,149.628221 L208.703298,97.2282213 C211.093709,95.845688 211.910755,92.7871126 210.528221,90.396702 C209.145688,88.0062914 206.087113,87.1892454 203.696702,88.5717787 L113.096702,140.971779 C110.706291,142.354312 109.889245,145.412887 111.271779,147.803298 C112.654312,150.193709 115.712887,151.010755 118.103298,149.628221 Z"></path><path d="M142.400926,6.75712294 L224.425341,54.1449879 L201.954717,90.2584906 C200.495852,92.6030956 201.213885,95.6864176 203.558491,97.145283 C205.903096,98.6041484 208.986418,97.8861145 210.445283,95.5415094 L235.645283,55.0415094 C237.138014,52.6424782 236.347805,49.4840401 233.901229,48.0705827 L143.201229,-4.32941726 C140.86044,-5.6817583 137.86867,-4.92865977 136.447112,-2.62924828 L111.347112,37.9707517 C109.895019,40.3195567 110.621947,43.4007939 112.970752,44.8528877 C115.319557,46.3049814 118.400794,45.5780533 119.852888,43.2292483 L142.400926,6.75712294 Z"></path><path d="M142.576148,182.327731 L121.441859,145.320432 C120.072432,142.922489 117.018375,142.088713 114.620432,143.458141 C112.222489,144.827568 111.388713,147.881625 112.758141,150.279568 L136.458141,191.779568 C137.86075,194.235614 141.019615,195.040317 143.426346,193.554681 L232.526346,138.554681 C234.821322,137.138029 235.579193,134.156528 234.239279,131.81592 L210.539279,90.4159198 C209.16736,88.019402 206.112438,87.188801 203.71592,88.5607206 C201.319402,89.9326403 200.488801,92.9875624 201.860721,95.3840802 L223.157545,132.586128 L142.576148,182.327731 Z"></path><path d="M8.84245517,132.586128 L30.1392794,95.3840802 C31.511199,92.9875624 30.680598,89.9326403 28.2840802,88.5607206 C25.8875624,87.188801 22.8326403,88.019402 21.4607206,90.4159198 L-2.23927937,131.81592 C-3.57919275,134.156528 -2.82132157,137.138029 -0.526346019,138.554681 L88.573654,193.554681 C90.9803855,195.040317 94.1392502,194.235614 95.5418594,191.779568 L119.241859,150.279568 C120.611287,147.881625 119.777511,144.827568 117.379568,143.458141 C114.981625,142.088713 111.927568,142.922489 110.558141,145.320432 L89.4238521,182.327731 L8.84245517,132.586128 Z"></path><path d="M7.57465914,54.1449879 L89.5990743,6.75712294 L112.147112,43.2292483 C113.599206,45.5780533 116.680443,46.3049814 119.029248,44.8528877 C121.378053,43.4007939 122.104981,40.3195567 120.652888,37.9707517 L95.5528877,-2.62924828 C94.1313303,-4.92865977 91.1395599,-5.6817583 88.7987711,-4.32941726 L-1.90122894,48.0705827 C-4.34780488,49.4840401 -5.13801358,52.6424782 -3.64528302,55.0415094 L21.554717,95.5415094 C23.0135824,97.8861145 26.0969044,98.6041484 28.4415094,97.145283 C30.7861145,95.6864176 31.5041484,92.6030956 30.045283,90.2584906 L7.57465914,54.1449879 Z"></path></g></svg>
