<svg xmlns="http://www.w3.org/2000/svg" xmlns:xlink="http://www.w3.org/1999/xlink" width="24px" height="24px" viewBox="0 0 24 24"><g  stroke="none" stroke-width="1" fill="none" fill-rule="evenodd"><g fill="currentColor" fill-rule="nonzero"><g><path d="M18.863,2.367 C17.813,2.367 16.959,3.221 16.959,4.272 C16.959,5.322 17.813,6.176 18.863,6.176 C19.914,6.176 20.768,5.322 20.768,4.272 C20.768,3.222 19.914,2.367 18.863,2.367 Z M18.863,5.376 C18.255,5.376 17.759,4.881 17.759,4.272 C17.759,3.663 18.254,3.168 18.863,3.168 C19.472,3.168 19.967,3.663 19.967,4.272 C19.967,4.881 19.472,5.376 18.863,5.376 Z"></path><path d="M21.911,1.27 C21.144,0.503 20.052,0.064 18.911,0.064 C17.77,0.064 16.678,0.503 15.911,1.27 L3.961,13.219 C3.787,13.394 3.691,13.625 3.691,13.872 C3.691,14.11 3.784,14.333 3.948,14.506 L1.094,17.36 C0.863,17.592 0.784,17.941 0.894,18.248 L2.712,23.369 C2.811,23.648 3.041,23.852 3.32,23.914 C3.351,23.922 3.481,23.937 3.513,23.937 C3.739,23.937 3.951,23.849 4.117,23.688 L8.619,19.185 L8.654,19.22 C8.829,19.393 9.06,19.489 9.306,19.489 C9.553,19.489 9.785,19.393 9.958,19.219 L21.911,7.271 C22.713,6.469 23.154,5.404 23.154,4.27 C23.154,3.137 22.712,2.071 21.911,1.27 Z M3.467,23.102 L1.661,17.926 L4.512,15.075 L8.053,18.616 L3.467,23.102 Z M9.974,11.354 C9.975,11.355 9.975,11.356 9.976,11.357 C9.977,11.358 9.978,11.358 9.979,11.359 L12.299,13.679 L11.361,14.617 L10.891,14.147 C10.889,14.145 10.889,14.143 10.887,14.142 C10.885,14.141 10.883,14.14 10.882,14.138 L9.041,12.296 C9.04,12.295 9.04,12.294 9.039,12.293 C9.038,12.292 9.037,12.292 9.036,12.291 L8.565,11.82 L9.502,10.882 L9.974,11.354 Z M10.826,11.073 L14.942,6.956 C15.284,6.612 15.882,6.612 16.224,6.956 C16.578,7.31 16.578,7.885 16.224,8.238 L12.107,12.355 L10.826,11.073 Z M10.038,14.424 L7.533,16.93 L6.243,15.654 L8.756,13.141 L10.038,14.424 Z M21.344,6.704 L9.395,18.652 C9.365,18.683 9.329,18.687 9.309,18.687 L8.102,17.493 L10.605,14.99 L11.079,15.464 C11.154,15.538 11.256,15.581 11.362,15.581 C11.468,15.581 11.57,15.538 11.645,15.464 L13.148,13.961 C13.304,13.805 13.304,13.551 13.148,13.395 L12.674,12.921 L16.791,8.804 C17.456,8.138 17.456,7.055 16.791,6.39 C16.146,5.744 15.022,5.744 14.376,6.389 L10.26,10.506 L9.785,10.031 C9.635,9.883 9.369,9.883 9.219,10.031 L7.717,11.534 C7.561,11.69 7.561,11.944 7.717,12.1 L8.191,12.574 L5.675,15.09 L4.529,13.957 C4.488,13.916 4.488,13.825 4.529,13.784 L16.477,1.836 C17.094,1.218 17.981,0.863 18.911,0.863 C19.841,0.863 20.727,1.217 21.345,1.836 C21.996,2.486 22.354,3.351 22.354,4.27 C22.353,5.189 21.996,6.054 21.344,6.704 Z"></path></g></g></g></svg>
