<svg xmlns="http://www.w3.org/2000/svg" xmlns:xlink="http://www.w3.org/1999/xlink" viewBox="0 0 64 64" xml:space="preserve"><g><g><path d="M64,29.1c0-0.3,0-0.5-0.2-0.7L62,26.9v-4.2h0.8c0.5,0,1.2-0.5,1.2-1v-10c0-0.6-0.6-1-1.2-1H42.1     c5-3,7.9-6.3,6.6-8.7c-0.6-1.2-2-1.9-4-1.9c-2.1,0-4.7,0.7-7.2,1.9c-2.3,1.1-4.3,2.6-5.6,4.1c-0.3,0.3-0.5,0.6-0.7,1     C30,5.3,27.8,3.5,24.8,2c-2.5-1.2-5.1-1.9-7.2-1.9c-2,0-3.4,0.7-4,1.9c-0.6,1.3-0.2,3,1.3,4.8c1.3,1.5,3.1,3,5.3,4H1     c-0.5,0-1,0.5-1,1v10c0,0.6,0.5,1,1,1h1v40.1c0,0.5,0.4,0.9,0.9,0.9h57.8c0.5,0,1.2-0.3,1.2-0.9V32.3l1.9-2.4     C64.1,29.7,64,29.4,64,29.1z M33.4,7.5c1.1-1.3,2.9-2.6,5-3.6c2.2-1.1,4.5-1.7,6.3-1.7c1.2,0,2,0.3,2.2,0.8c0.5,1.1-1.5,4-6,6.2     c-1.4,0.7-3.1,1-4.9,1c-1.6,0-3-0.3-3.7-0.4C32.3,9.1,32.7,8.3,33.4,7.5z M16.4,5.4c-0.9-1.1-1.3-2-1-2.6     c0.2-0.5,1.1-0.8,2.2-0.8c1.8,0,4.1,0.6,6.3,1.7c4,2,6.1,4.5,6.1,5.8c-0.7,0.2-2.1,0.4-3.7,0.4c-1.9,0-3.5-0.3-4.9-1     C19.3,8,17.6,6.7,16.4,5.4z M2,20.7v-8h22v8H2z M25,61.7H4v-39h21V61.7z M35,61.7h-8v-39h8V61.7z M36,20.7H26v-8h5.8l4.2,3.4     V20.7z M36,14.8l-2.6-2.1H36V14.8z M60,61.7H37v-39h0l0.5,3.2c0,0.2,0.2,0.5,0.3,0.6l16,13.5l0.1,0c0,0,0,0,0,0     c0.1,0.1,0.3,0.2,0.4,0.2c0,0,0.1,0,0.2,0c0.1,0,0.3,0,0.5-0.1c0,0,0.1,0,0.1-0.1c0.1,0,0.2-0.1,0.3-0.2l4.5-5.2V61.7z M60,31.3     l-5.5,6.6L54,37.4l-0.1-0.1L39.4,25.2l-1.1-7.3l2.8,2.2c-0.3,0.6-0.5,1.2-0.4,1.9c0.1,0.9,0.5,1.6,1.1,2.2     c0.6,0.5,1.3,0.8,2.1,0.8c1,0,1.9-0.4,2.5-1.1c1.2-1.4,1-3.4-0.4-4.5c-1.2-1-3.1-0.9-4.2,0.1l-3.1-2.5l7.9-0.2l7.4,6.2L54,23l6,5     l1.6,1.3L60,31.3z M44.2,21.4l-0.9-0.7c0.2-0.1,0.4-0.1,0.6-0.1c0.2,0,0.5,0,0.8,0.3c0.5,0.4,0.6,1.2,0.1,1.7     c-0.2,0.3-0.6,0.4-0.9,0.4c-0.2,0-0.5,0-0.8-0.3c-0.2-0.2-0.4-0.5-0.4-0.8c0-0.1,0-0.3,0-0.4l0.9,0.7c0.1,0.1,0.2,0.1,0.3,0.1     c0.2,0,0.3-0.1,0.4-0.2C44.5,21.8,44.4,21.5,44.2,21.4z M56.8,22.7H60v2.5L56.8,22.7z M54.4,20.7L47.5,15     c-0.2-0.2-0.4-0.2-0.7-0.2L38,14.9v-2.2h24v8H54.4z" fill="currentColor"></path><path d="M55.5,26.7c-0.1-1-0.7-1.8-1.5-2.3c-0.5-0.3-1.2-0.5-1.8-0.4c-1.3,0.1-2.1,1.2-2.2,2.8     c-1.6,0.4-2.5,1.4-2.4,2.7c0.1,1.6,1.5,2.8,3.1,2.8c0.1,0,0.1,0,0.2,0l3.1-0.2l1-0.1c0.3,0,0.5-0.1,0.7-0.4     c0.2-0.2,0.3-0.5,0.2-0.7L55.5,26.7z M50.7,30.7L50.7,30.7c-0.6,0-1.1-0.6-1.1-1.2c0-0.2,0.6-0.6,1.5-0.8     c0.5-0.1,0.9-0.6,0.9-1.1c0-1,0.2-1.6,0.5-1.7c0.5,0,1,0.4,1.1,0.9l0.3,3.3L50.7,30.7z" fill="currentColor"></path></g><path d="M55,32l-1,0.1v-7.6c0.8,0.5,1.4,1.3,1.5,2.3l0.4,4.2c0,0.3-0.1,0.5-0.2,0.7    C55.5,31.8,55.3,31.9,55,32z" fill="currentColor" opacity="0.25"></path><polygon fill="currentColor" opacity="0.25" points="60,25.2 60,28 54,23 54,22.7 56.8,22.7   "></polygon><path d="M54.5,37.8l5.5-6.6v3.4l-4.5,5.2c-0.1,0.1-0.2,0.2-0.3,0.2c0,0-0.1,0-0.1,0.1    c-0.2,0.1-0.3,0.1-0.5,0.1c-0.1,0-0.1,0-0.2,0c-0.1,0-0.2-0.1-0.2-0.1c-0.1,0-0.1-0.1-0.2-0.1l0,0v-2.5L54.5,37.8z" fill="currentColor" opacity="0.25"></path></g></svg>
