<svg xmlns="http://www.w3.org/2000/svg" xmlns:xlink="http://www.w3.org/1999/xlink" width="34px" height="26px" viewBox="0 0 34 26"><g  stroke="none" stroke-width="1" fill="none" fill-rule="evenodd"><g fill="currentColor"><path d="M17,21.487 C10.079,21.487 4.097,15.027 2.39,13 C3.321,11.896 5.527,9.477 8.456,7.502 L7.008,6.054 C3.06,8.795 0.481,12.163 0.304,12.4 C0.037,12.755 0.037,13.244 0.304,13.599 C0.606,14.004 7.826,23.487 17,23.487 C19.163,23.487 21.211,22.949 23.092,22.137 L21.55,20.595 C20.107,21.14 18.58,21.487 17,21.487 Z"></path><path d="M33.696,12.4 C33.394,11.996 26.174,2.513 17,2.513 C14.837,2.513 12.789,3.051 10.908,3.863 L12.449,5.405 C13.892,4.861 15.42,4.513 17,4.513 C23.921,4.513 29.903,10.973 31.61,13 C30.679,14.104 28.473,16.523 25.543,18.498 L26.991,19.946 C30.94,17.205 33.518,13.837 33.696,13.599 C33.963,13.244 33.963,12.756 33.696,12.4 Z"></path><path d="M10.443,9.488 C9.881,10.535 9.56,11.73 9.56,13 C9.56,17.103 12.898,20.44 17,20.44 C18.27,20.44 19.464,20.119 20.511,19.556 L19.389,18.434 C18.657,18.758 17.85,18.94 17,18.94 C13.725,18.94 11.06,16.275 11.06,13 C11.06,12.149 11.243,11.343 11.566,10.61 L10.443,9.488 Z"></path><path d="M23.557,16.512 C24.119,15.465 24.44,14.27 24.44,13 C24.44,8.896 21.102,5.559 17,5.559 C15.73,5.559 14.535,5.88 13.488,6.443 L14.609,7.566 C15.341,7.242 16.149,7.059 17,7.059 C17.376,7.059 17.743,7.098 18.1,7.165 C17.75,7.712 17.537,8.343 17.537,9.011 C17.537,10.914 19.086,12.462 20.989,12.462 C21.657,12.462 22.287,12.25 22.834,11.9 C22.901,12.256 22.94,12.624 22.94,13 C22.94,13.851 22.757,14.657 22.434,15.39 L23.557,16.512 Z M20.989,10.962 C19.913,10.962 19.037,10.087 19.037,9.011 C19.037,8.501 19.243,8.023 19.59,7.661 C20.786,8.244 21.755,9.214 22.338,10.409 C21.978,10.757 21.499,10.962 20.989,10.962 Z"  fill-rule="nonzero"></path><rect transform="translate(16.998900, 13.000300) rotate(-135.000000) translate(-16.998900, -13.000300) " x="0.322059933" y="12.0003096" width="33.3536801" height="1.99998082"></rect></g></g></svg>
