<svg xmlns="http://www.w3.org/2000/svg" xmlns:xlink="http://www.w3.org/1999/xlink" width="142px" height="142px" viewBox="0 0 142 142"><g  stroke="none" stroke-width="1" fill="none" fill-rule="evenodd"><g transform="translate(2.000000, 2.000000)"><path d="M49.2857143,49.2857143 L65.1723443,49.2857143 L65.1723443,88.5251296 L56.7518691,88.5251296 L56.7518691,56.7518691 L49.2857143,56.7518691 L49.2857143,49.2857143 Z M82.5044898,71.5719055 L82.5044898,64.7232523 L90.9249649,64.7232523 L90.9249649,71.5719055 L95.3597487,71.5719055 L95.3597487,79.1503337 L90.9249649,79.1503337 L90.9249649,88.5251296 L82.5044898,88.5251296 L82.5044898,79.1503337 L66.7301326,79.1503337 L66.7301326,72.4700898 L80.7081216,49.2857143 L90.2513268,49.2857143 L76.9469759,71.5719055 L82.5044898,71.5719055 Z" fill="currentColor" fill-rule="nonzero"></path><path d="M69,19.7142857 C96.1071429,19.7142857 118.285714,41.8928571 118.285714,69 C118.285714,96.1071429 96.1071429,118.285714 69,118.285714 C41.8928571,118.285714 19.7142857,96.1071429 19.7142857,69 L19.7142857,54.2142857" stroke="currentColor" stroke-width="4" stroke-linecap="round" stroke-linejoin="round"></path><polyline stroke="currentColor" stroke-width="4" stroke-linecap="round" stroke-linejoin="round" points="39.4285714 73.9285714 19.7142857 54.2142857 0 73.9285714"></polyline><path d="M69,0 C106.95,0 138,31.05 138,69 C138,106.95 106.95,138 69,138" stroke="currentColor" stroke-width="4" stroke-linecap="round" stroke-linejoin="round"></path></g></g></svg>
