<svg xmlns="http://www.w3.org/2000/svg" width="73.25" height="59.3" viewBox="0 0 73.25 59.3">
  <path fill="currentColor" d="M849.724,15771.8a15.941,15.941,0,0,0,11.2-4.2,14.107,14.107,0,0,0,4.565-10.7,14.444,14.444,0,0,0-6.64-12.5l8.507-31.9h-14.94l-13.487,28.2a76.041,76.041,0,0,0-3.735,9.3,24.815,24.815,0,0,0-1.037,6.9,14.249,14.249,0,0,0,4.461,10.7,15.563,15.563,0,0,0,11.1,4.2h0Zm40.047,0a15.941,15.941,0,0,0,11.205-4.2,14.107,14.107,0,0,0,4.565-10.7,14.444,14.444,0,0,0-6.64-12.5l8.507-31.9h-14.94l-13.487,28.2a76.041,76.041,0,0,0-3.735,9.3,24.815,24.815,0,0,0-1.037,6.9,14.249,14.249,0,0,0,4.461,10.7,15.563,15.563,0,0,0,11.1,4.2h0Z" transform="translate(-834.156 -15712.5)"/>
</svg>
