<svg xmlns="http://www.w3.org/2000/svg" xmlns:xlink="http://www.w3.org/1999/xlink" width="42px" height="48px" viewBox="0 0 42 48"><g  stroke="none" stroke-width="1" fill="none" fill-rule="evenodd"><g fill="currentColor" fill-rule="nonzero"><g><path d="M21.0000076,47.4996338 C20.9238357,47.4996338 20.8486404,47.4820557 20.7783279,47.447876 C-0.0888591,37.1383057 0.7334065,8.2340088 0.7441487,7.9429932 C0.7529378,7.7081299 0.9238362,7.5113526 1.1552815,7.4693604 C14.2695389,5.1065674 20.646492,0.6383057 20.708992,0.5933838 C20.8828201,0.4693604 21.1171951,0.4693604 21.2910233,0.5933838 C21.3535233,0.6383057 27.7304764,5.1065674 40.8447342,7.4693604 C41.0761795,7.5113526 41.247078,7.7081299 41.255867,7.9429932 C41.2666092,8.2340088 42.0878983,37.1383057 21.2216873,47.447876 C21.1513748,47.4820557 21.0761795,47.4996338 21.0000076,47.4996338 Z M1.7382894,8.3795166 C1.7197347,11.8585205 2.256844,36.9859619 21.0000076,46.44104 C39.7519607,36.9810791 40.2822342,11.8580322 40.2627029,8.3795166 C28.5830154,6.2164307 22.3828201,2.5079346 21.0000076,1.6036377 C19.6171951,2.5079346 13.4169998,6.2164307 1.7382894,8.3795166 Z"></path><path d="M20.9990311,42.9508057 C20.9111405,42.9508057 20.8222733,42.9273682 20.7431717,42.8804932 C7.5908289,35.06604 5.224618,18.1573486 4.818368,11.2506104 C4.8037196,11.0059815 4.9687586,10.7867432 5.208993,10.7335206 C12.7138749,9.0596925 17.809578,6.8072511 20.762703,5.2120362 C20.9111405,5.1319581 21.0888749,5.1319581 21.2373124,5.2120362 C24.1904374,6.8062745 29.2841874,9.0582276 36.7822343,10.7315675 C37.0224687,10.7847902 37.1875077,11.0045167 37.1728593,11.2501222 C36.7480546,18.1651613 34.347664,35.0904542 21.2548905,42.8804933 C21.1757889,42.9273682 21.0878983,42.9508057 20.9990311,42.9508057 Z M5.842782,11.6153564 C6.3086023,18.5587158 8.7382898,34.3853759 20.999031,41.8668212 C33.202156,34.4078368 35.6640701,18.5655517 36.1474685,11.6129149 C28.9589919,9.9693602 23.9824294,7.8038329 21.0000076,6.2193602 C18.0166092,7.8048096 13.0390701,9.9713135 5.842782,11.6153564 Z"></path><path d="M24.1201248,30.7877197 L17.8701248,30.7877197 C17.7255935,30.7877197 17.5869217,30.7252197 17.4921951,30.6148681 C17.3974685,30.5054931 17.3544998,30.3609618 17.3750076,30.2174072 L18.474617,22.5230713 C16.6523514,21.5836182 15.4951248,19.7056885 15.4951248,17.6368408 C15.4951248,14.604126 17.9628982,12.1368408 20.9951248,12.1368408 C24.0273514,12.1368408 26.4951248,14.604126 26.4951248,17.6368408 C26.4951248,19.7052002 25.3378982,21.5836181 23.5166092,22.5230713 L24.615242,30.2174072 C24.6357498,30.3609619 24.5927811,30.5054931 24.4980545,30.6148681 C24.4033279,30.7252197 24.2646561,30.7877197 24.1201248,30.7877197 Z M18.4462967,29.7877197 L23.543953,29.7877197 L22.4746171,22.2994384 C22.4423905,22.0762939 22.5644609,21.8590087 22.7714921,21.7701415 C24.425789,21.0572509 25.4951249,19.4346923 25.4951249,17.6368407 C25.4951249,15.1553954 23.4765702,13.1368407 20.9951249,13.1368407 C18.5136796,13.1368407 16.4951249,15.1553954 16.4951249,17.6368407 C16.4951249,19.4351805 17.5644608,21.0572509 19.2187577,21.7696532 C19.4267655,21.8590087 19.5488358,22.0762938 19.5166093,22.2994384 L18.4462967,29.7877197 Z"></path></g></g></g></svg>
