<svg xmlns="http://www.w3.org/2000/svg" xmlns:xlink="http://www.w3.org/1999/xlink" width="118px" height="130px" viewBox="0 0 118 130"><g  stroke="none" stroke-width="1" fill="none" fill-rule="evenodd"><g fill="currentColor"><path d="M42.82,65.19 C42.3052543,64.9407403 41.7047457,64.9407403 41.19,65.19 L30.82,70.92 C30.3427584,71.2092405 30.036676,71.7131566 30,72.27 L30,83.73 C30.0351674,84.2899385 30.3412181,84.7975349 30.82,85.09 L41.19,90.82 C41.7047457,91.0692597 42.3052543,91.0692597 42.82,90.82 L53.18,85.09 C53.6600292,84.7987769 53.9665132,84.2904619 54,83.73 L54,72.27 C53.9665132,71.7095381 53.6600292,71.2012231 53.18,70.91 L42.82,65.19 Z M50,82.27 L42,86.69 L34,82.27 L34,73.73 L42,69.31 L50,73.73 L50,82.27 Z" fill-rule="nonzero"></path><path d="M116.09,40.11 L91.91,26.45 C90.7096631,25.8551146 89.3003369,25.8551146 88.1,26.45 L63.91,40.11 C62.7903016,40.8162333 62.0793268,42.0185625 62,43.34 L62,70.66 C62.0793268,71.9814375 62.7903016,73.1837667 63.91,73.89 L88.09,87.55 C89.2903369,88.1448854 90.6996631,88.1448854 91.9,87.55 L116.09,73.89 C117.209698,73.1837667 117.920673,71.9814375 118,70.66 L118,43.34 C117.920673,42.0185625 117.209698,40.8162333 116.09,40.11 Z M114,70.46 L90.07,84 L89.93,84 L66,70.5 L66,43.54 L89.93,30 L90.06,30 L114,43.51 L114,70.46 Z" fill-rule="nonzero"></path><circle  cx="77.15" cy="67" r="2"></circle><path d="M13,40.26 L9,42.53 C8.37873161,42.8886819 7.99715199,43.5526305 8,44.27 L8,50 C8,51.1045695 8.8954305,52 10,52 C11.1045695,52 12,51.1045695 12,50 L12,46 L12.39,45.21 L15,43.74 C15.9609754,43.1877152 16.2922847,41.9609755 15.7399999,41 C15.1877152,40.0390246 13.9609755,39.7077153 13,40.26 Z" ></path><path d="M65.78,11.1 C65.5402416,10.6263358 65.1219975,10.2674309 64.6174231,10.1023656 C64.1128487,9.93730041 63.5633491,9.97962007 63.09,10.22 L59.09,12.22 C58.4213222,12.5616633 58.0003691,13.2490914 58,14 L58,18 C58,19.1045695 58.8954305,20 60,20 C61.1045695,20 62,19.1045695 62,18 L62,15.25 L64.9,13.78 C65.880626,13.2808487 66.2738486,12.0833071 65.78,11.1 Z" ></path><path d="M109,89.35 C108.848133,90.1545956 108.393619,90.8703666 107.73,91.35 L81,106.13 L81,101.63 C80.9600195,100.814822 80.5277244,100.069486 79.84,99.63 L65.16,91.27 C64.430282,90.9026897 63.569718,90.9026897 62.84,91.27 L48.16,99.65 C47.4722756,100.089486 47.0399805,100.834822 47,101.65 L47,106.15 L20.27,91.38 C19.6063815,90.9003666 19.1518669,90.1845956 19,89.38 L19,67.25 L32.84,59.36 C33.5277244,58.920514 33.9600195,58.1751775 34,57.36 L34,40.63 C33.9600195,39.8148225 33.5277244,39.069486 32.84,38.63 L28.42,36.11 L50.21,24.11 C50.3700883,24.45841 50.6269544,24.7534588 50.95,24.96 L63,31.78 C63.6017208,32.0783209 64.3082792,32.0783209 64.91,31.78 L77,24.95 C77.3230456,24.7434588 77.5799117,24.44841 77.74,24.1 L81,25.87 L85.09,23.56 L78,19.65 L78,9.65 C77.961535,8.97580624 77.5854501,8.36654869 77,8.03 L65,1.22 C64.3739117,0.891048841 63.6260883,0.891048841 63,1.22 L51,8.05 C50.4209323,8.39309087 50.0471738,8.99857956 50,9.67 L50,19.67 L24.35,33.8 L18.16,30.27 C17.430282,29.9026897 16.569718,29.9026897 15.84,30.27 L1.16,38.65 C0.472275609,39.089486 0.0399804659,39.8348225 0,40.65 L0,57.37 C0.0416223705,58.1846915 0.473512796,58.9293301 1.16,59.37 L15,67.25 L15,89.35 C15.1452888,91.6275895 16.3917583,93.6913549 18.34,94.88 L47,110.7 L47,118.37 C47.0416224,119.184691 47.4735128,119.92933 48.16,120.37 L62.85,128.74 C63.579718,129.10731 64.440282,129.10731 65.17,128.74 L79.85,120.37 C80.5377244,119.930514 80.9700195,119.185178 81.01,118.37 L81.01,110.7 L109.67,94.89 C111.617195,93.6970445 112.860091,91.6292846 113,89.35 L113,80.23 L109,82.49 L109,89.35 Z M54,10.93 L64,5.28 L74,10.93 L74,22.07 L64,27.72 L54,22.07 L54,10.93 Z M4,41.63 L17,34.22 L30,41.63 L30,56.37 L17,63.78 L4,56.37 L4,41.63 Z M77,117.37 L64,124.78 L51,117.37 L51,102.63 L64,95.22 L77,102.63 L77,117.37 Z" fill-rule="nonzero"></path><path d="M60,101.26 L56,103.53 C55.3787316,103.888682 54.997152,104.55263 55,105.27 L55,111 C55,112.104569 55.8954305,113 57,113 C58.1045695,113 59,112.104569 59,111 L59,107 L59.39,106.21 L62,104.74 C62.9609754,104.187715 63.2922847,102.960975 62.7399999,102 C62.1877152,101.039025 60.9609755,100.707715 60,101.26 Z" ></path><path d="M86,41.27 L76,47.07 C75.3818319,47.426899 75.0007321,48.0862016 75,48.8 L75,59 C75,60.1045695 75.8954305,61 77,61 C78.1045695,61 79,60.1045695 79,59 L79,50 L88,44.78 C88.9045052,44.205008 89.1949604,43.0192064 88.6585865,42.0912795 C88.1222125,41.1633526 86.9497009,40.8231966 86,41.32 L86,41.27 Z" ></path></g></g></svg>
