<svg xmlns="http://www.w3.org/2000/svg" xmlns:xlink="http://www.w3.org/1999/xlink" width="24px" height="24px" viewBox="0 0 24 24"><g  stroke="none" stroke-width="1" fill="none" fill-rule="evenodd"><g fill="currentColor"><g><path d="M23.368,20.258 L0.632,20.258 C0.411,20.258 0.232,20.438 0.232,20.658 C0.232,20.878 0.411,21.058 0.632,21.058 L1.253,21.058 L0.308,22.371 C0.179,22.55 0.22,22.8 0.399,22.929 C0.47,22.981 0.552,23.005 0.632,23.005 C0.757,23.005 0.879,22.946 0.957,22.838 L2.238,21.058 L3.519,21.058 L2.573,22.371 C2.444,22.55 2.485,22.8 2.664,22.929 C2.735,22.981 2.817,23.005 2.897,23.005 C3.022,23.005 3.144,22.946 3.222,22.838 L4.504,21.058 L5.784,21.058 L4.839,22.371 C4.71,22.551 4.75,22.801 4.93,22.93 C5,22.981 5.083,23.006 5.163,23.006 C5.288,23.006 5.41,22.947 5.488,22.839 L6.769,21.059 L8.05,21.059 L7.104,22.372 C6.975,22.551 7.016,22.801 7.195,22.93 C7.266,22.982 7.348,23.006 7.428,23.006 C7.553,23.006 7.675,22.947 7.753,22.839 L9.035,21.059 L10.315,21.059 L9.37,22.372 C9.241,22.551 9.282,22.801 9.461,22.93 C9.532,22.982 9.614,23.006 9.694,23.006 C9.819,23.006 9.941,22.947 10.019,22.839 L11.3,21.059 L12.581,21.059 L11.635,22.372 C11.506,22.551 11.547,22.801 11.726,22.93 C11.797,22.982 11.879,23.006 11.959,23.006 C12.084,23.006 12.206,22.947 12.284,22.839 L13.565,21.059 L14.847,21.059 L13.901,22.372 C13.771,22.551 13.812,22.801 13.992,22.93 C14.062,22.982 14.144,23.006 14.225,23.006 C14.349,23.006 14.471,22.948 14.549,22.839 L15.831,21.059 L17.112,21.059 L16.167,22.372 C16.037,22.551 16.078,22.801 16.258,22.93 C16.328,22.982 16.41,23.006 16.491,23.006 C16.615,23.006 16.737,22.947 16.815,22.839 L18.096,21.059 L19.377,21.059 L18.432,22.372 C18.302,22.551 18.343,22.801 18.523,22.93 C18.593,22.982 18.675,23.006 18.756,23.006 C18.88,23.006 19.002,22.947 19.08,22.839 L20.361,21.059 L21.642,21.059 L20.7,22.372 C20.57,22.551 20.611,22.801 20.791,22.93 C20.861,22.982 20.943,23.006 21.024,23.006 C21.148,23.006 21.27,22.947 21.348,22.839 L22.629,21.059 L23.367,21.059 C23.588,21.059 23.767,20.879 23.767,20.659 C23.767,20.439 23.589,20.258 23.368,20.258 Z" ></path><path d="M12,18.867 C14.597,18.867 16.71,16.754 16.71,14.157 L16.71,13.801 L17.189,14.63 C17.3,14.821 17.544,14.886 17.736,14.776 C17.927,14.666 17.993,14.421 17.882,14.229 L16.695,12.174 C16.659,11.99 16.504,11.849 16.31,11.849 C16.116,11.849 15.961,11.99 15.925,12.174 L14.739,14.229 C14.629,14.42 14.694,14.666 14.885,14.776 C14.948,14.812 15.017,14.83 15.085,14.83 C15.223,14.83 15.357,14.758 15.432,14.63 L15.91,13.802 L15.91,14.157 C15.91,16.312 14.156,18.066 12.001,18.066 C9.845,18.066 8.091,16.312 8.091,14.157 L8.091,3.684 C8.091,3.463 7.912,3.284 7.691,3.284 C7.47,3.284 7.291,3.463 7.291,3.684 L7.291,14.157 C7.29,16.754 9.403,18.867 12,18.867 Z" ></path><path d="M12.662,11.145 C13.761,11.145 14.656,10.251 14.656,9.152 C14.656,8.223 13.201,4.476 13.035,4.052 C12.915,3.744 12.41,3.745 12.29,4.052 C12.124,4.476 10.67,8.223 10.67,9.152 C10.669,10.251 11.563,11.145 12.662,11.145 Z M12.662,5.321 C13.224,6.828 13.855,8.677 13.855,9.152 C13.855,9.81 13.32,10.345 12.662,10.345 C12.005,10.345 11.47,9.81 11.47,9.152 C11.469,8.677 12.101,6.829 12.662,5.321 Z"  fill-rule="nonzero"></path><path d="M3.435,11.75 C4.534,11.75 5.427,10.856 5.427,9.757 C5.427,8.829 3.973,5.082 3.807,4.657 C3.748,4.504 3.6,4.403 3.435,4.403 C3.27,4.403 3.123,4.504 3.063,4.657 C2.897,5.081 1.443,8.828 1.443,9.757 C1.442,10.855 2.336,11.75 3.435,11.75 Z M3.435,5.926 C3.996,7.433 4.627,9.282 4.627,9.757 C4.627,10.415 4.092,10.95 3.435,10.95 C2.777,10.95 2.242,10.415 2.242,9.757 C2.242,9.282 2.874,7.434 3.435,5.926 Z"  fill-rule="nonzero"></path><path d="M2.033,16.932 C3.027,16.932 3.835,16.123 3.835,15.13 C3.835,14.137 3.027,13.328 2.033,13.328 C1.04,13.328 0.232,14.137 0.232,15.13 C0.232,16.123 1.04,16.932 2.033,16.932 Z M2.033,14.129 C2.585,14.129 3.035,14.578 3.035,15.13 C3.035,15.682 2.585,16.131 2.033,16.131 C1.481,16.131 1.032,15.682 1.032,15.13 C1.032,14.578 1.481,14.129 2.033,14.129 Z"  fill-rule="nonzero"></path><path d="M21.024,18.867 C22.017,18.867 22.826,18.058 22.826,17.065 C22.826,16.071 22.017,15.262 21.024,15.262 C20.031,15.262 19.222,16.071 19.222,17.065 C19.223,18.059 20.031,18.867 21.024,18.867 Z M21.024,16.063 C21.576,16.063 22.025,16.512 22.025,17.065 C22.025,17.617 21.576,18.066 21.024,18.066 C20.472,18.066 20.023,17.617 20.023,17.065 C20.023,16.513 20.473,16.063 21.024,16.063 Z"  fill-rule="nonzero"></path><path d="M17.895,4.598 C18.888,4.598 19.697,3.79 19.697,2.796 C19.697,1.803 18.888,0.995 17.895,0.995 C16.902,0.995 16.093,1.803 16.093,2.796 C16.093,3.79 16.901,4.598 17.895,4.598 Z M17.895,1.795 C18.447,1.795 18.896,2.244 18.896,2.796 C18.896,3.348 18.447,3.798 17.895,3.798 C17.343,3.798 16.894,3.348 16.894,2.796 C16.894,2.244 17.343,1.795 17.895,1.795 Z"  fill-rule="nonzero"></path></g></g></g></svg>
